<?xml version="1.0" encoding="UTF-8" standalone="no"?>
<svg
   width="24"
   height="24"
   viewBox="0 0 24 24"
   version="1.1"
   id="svg4"
   sodipodi:docname="accessories.svg"
   inkscape:version="1.1 (c68e22c387, 2021-05-23)"
   xmlns:inkscape="http://www.inkscape.org/namespaces/inkscape"
   xmlns:sodipodi="http://sodipodi.sourceforge.net/DTD/sodipodi-0.dtd"
   xmlns="http://www.w3.org/2000/svg"
   xmlns:svg="http://www.w3.org/2000/svg">
  <defs
     id="defs8" />
  <sodipodi:namedview
     id="namedview6"
     pagecolor="#ffffff"
     bordercolor="#666666"
     borderopacity="1.0"
     inkscape:pageshadow="2"
     inkscape:pageopacity="0.0"
     inkscape:pagecheckerboard="0"
     showgrid="false"
     inkscape:zoom="33.833333"
     inkscape:cx="18.724138"
     inkscape:cy="11.512315"
     inkscape:window-width="1920"
     inkscape:window-height="1001"
     inkscape:window-x="-9"
     inkscape:window-y="-9"
     inkscape:window-maximized="1"
     inkscape:current-layer="svg4" />
  <path
     d="M15.5 1h-8C6.12 1 5 2.12 5 3.5v17C5 21.88 6.12 23 7.5 23h8c1.38 0 2.5-1.12 2.5-2.5v-17C18 2.12 16.88 1 15.5 1zm-4 21c-.83 0-1.5-.67-1.5-1.5s.67-1.5 1.5-1.5 1.5.67 1.5 1.5-.67 1.5-1.5 1.5zm4.5-4H7V4h9v14z"
     id="path2" />
  <path
     style="fill:#f9f9f9;stroke-width:0.0295567"
     d="M 7.270936,22.975581 C 7.0396339,22.945595 6.7198499,22.862607 6.5354264,22.784707 5.9423786,22.534202 5.4184181,21.993986 5.1873513,21.39481 4.9984415,20.904951 5.0098522,21.508908 5.0098522,12 c 0,-7.6079178 0.00542,-8.6834456 0.044915,-8.9099151 C 5.2250293,2.1137277 5.9291122,1.3551533 6.9162562,1.084528 L 7.1527094,1.019704 h 4.3300496 c 4.701522,0 4.453739,-0.00841 4.910673,0.1665901 0.816846,0.3128349 1.422394,1.0679927 1.561032,1.9467104 0.04205,0.2665117 0.04205,17.4674785 0,17.7339905 -0.15634,0.990918 -0.846963,1.75441 -1.849817,2.044999 l -0.232726,0.06743 -4.256157,0.0038 c -2.3408872,0.0021 -4.2960596,-0.0013 -4.344828,-0.0077 z m 4.542079,-0.998709 c 0.305204,-0.06469 0.51579,-0.181235 0.749206,-0.414651 0.243403,-0.243403 0.355086,-0.45326 0.422015,-0.792985 0.03879,-0.196877 0.04066,-0.274295 0.0115,-0.474366 -0.16122,-1.106129 -1.399018,-1.666542 -2.331418,-1.055549 -0.7928628,0.519556 -0.9089915,1.649562 -0.238435,2.320119 0.377806,0.377805 0.872167,0.526574 1.387128,0.417432 z M 16.004926,10.995074 V 3.9901478 H 11.497537 6.9901478 V 10.995074 18 h 4.5073892 4.507389 z"
     id="path1218" />
</svg>
