<?xml version="1.0" encoding="UTF-8" standalone="no"?>
<svg
   width="24"
   height="24"
   viewBox="0 0 24 24"
   version="1.1"
   id="svg4"
   sodipodi:docname="accessories2.svg"
   inkscape:version="1.1 (c68e22c387, 2021-05-23)"
   xmlns:inkscape="http://www.inkscape.org/namespaces/inkscape"
   xmlns:sodipodi="http://sodipodi.sourceforge.net/DTD/sodipodi-0.dtd"
   xmlns="http://www.w3.org/2000/svg"
   xmlns:svg="http://www.w3.org/2000/svg">
  <defs
     id="defs8" />
  <sodipodi:namedview
     id="namedview6"
     pagecolor="#ffffff"
     bordercolor="#666666"
     borderopacity="1.0"
     inkscape:pageshadow="2"
     inkscape:pageopacity="0.0"
     inkscape:pagecheckerboard="0"
     showgrid="false"
     inkscape:zoom="33.833333"
     inkscape:cx="11.985222"
     inkscape:cy="11.955665"
     inkscape:window-width="1920"
     inkscape:window-height="1001"
     inkscape:window-x="-9"
     inkscape:window-y="-9"
     inkscape:window-maximized="1"
     inkscape:current-layer="svg4" />
  <path
     d="M3 6h18V4H3c-1.1 0-2 .9-2 2v12c0 1.1.9 2 2 2h4v-2H3V6zm10 6H9v1.78c-.61.55-1 1.33-1 2.22s.39 1.67 1 2.22V20h4v-1.78c.61-.55 1-1.34 1-2.22s-.39-1.67-1-2.22V12zm-2 5.5c-.83 0-1.5-.67-1.5-1.5s.67-1.5 1.5-1.5 1.5.67 1.5 1.5-.67 1.5-1.5 1.5zM22 8h-6c-.5 0-1 .5-1 1v10c0 .5.5 1 1 1h6c.5 0 1-.5 1-1V9c0-.5-.5-1-1-1zm-1 10h-4v-8h4v8z"
     id="path2" />
  <path
     style="fill:#f2f2f2;stroke-width:0.0295567"
     d="M 2.6302435,19.950252 C 2.2398808,19.872636 1.9160978,19.694423 1.6108374,19.389163 1.3625399,19.140865 1.2303787,18.935283 1.1136771,18.61581 L 1.0344828,18.399015 V 12.014778 5.6305419 L 1.1032196,5.4236453 C 1.2119178,5.0964659 1.3628934,4.853518 1.6083248,4.6108374 1.8601189,4.3618654 2.0661107,4.2298695 2.3841894,4.1136771 L 2.6009852,4.0344828 11.800493,4.0268159 21,4.019149 V 5.0095745 6 H 12 3 v 6 6 h 1.9950739 1.9950739 v 0.990148 0.990148 l -2.1206897,-0.0032 c -1.1663793,-0.0018 -2.1740258,-0.01384 -2.2392146,-0.0268 z"
     id="path83" />
  <path
     style="fill:#f2f2f2;stroke-width:0.0295567"
     d="m 9,19.085096 v -0.8952 L 8.8509217,18.043224 C 8.5378846,17.735239 8.2304902,17.193841 8.109532,16.737452 8.0306966,16.439997 8.0034389,15.864445 8.053478,15.553863 8.1502379,14.953294 8.4296249,14.393132 8.8497155,13.957432 L 9,13.801563 V 12.900782 12 h 1.995074 1.995074 v 0.89568 0.89568 l 0.106069,0.101857 c 0.187743,0.180288 0.453231,0.557971 0.587691,0.836049 0.458664,0.948568 0.384386,2.017962 -0.201,2.893835 -0.08965,0.134142 -0.2372,0.321278 -0.327883,0.415859 l -0.164877,0.171965 v 0.884686 0.884685 H 10.995074 9 Z m 2.454429,-1.647935 c 0.649845,-0.187577 1.103848,-0.850084 1.052373,-1.535683 -0.03105,-0.413499 -0.185508,-0.731182 -0.494693,-1.017432 -0.589565,-0.545834 -1.505897,-0.523811 -2.079691,0.04998 -0.3015606,0.30156 -0.4373784,0.639381 -0.4350692,1.082152 0.00271,0.520113 0.2321789,0.957747 0.6463112,1.232632 0.398251,0.264344 0.831707,0.326628 1.310769,0.188347 z"
     id="path122" />
  <path
     style="fill:#f2f2f2;stroke-width:0.0295567"
     d="m 15.693353,19.920147 c -0.221751,-0.08574 -0.464899,-0.317382 -0.581289,-0.55379 l -0.09729,-0.197604 -0.0083,-5.025263 c -0.0052,-3.156608 0.0024,-5.0947235 0.02053,-5.2120584 0.01583,-0.1027372 0.05888,-0.2490426 0.09566,-0.3251231 0.09156,-0.1893889 0.316869,-0.4067605 0.520562,-0.5022246 l 0.169531,-0.079453 h 3.192118 3.192118 l 0.165798,0.081423 c 0.186761,0.091718 0.428236,0.33036 0.532909,0.5266574 l 0.06977,0.1308362 v 5.2315275 5.231527 l -0.08309,0.157759 c -0.10592,0.201106 -0.296962,0.392148 -0.498068,0.498068 l -0.157759,0.08309 -3.192118,0.0061 c -3.101558,0.0059 -3.196346,0.0045 -3.34113,-0.05149 z M 21,13.995074 V 9.9901478 H 18.990148 16.980296 V 13.995074 18 H 18.990148 21 Z"
     id="path161" />
</svg>
