<?xml version="1.0" encoding="UTF-8" standalone="no"?>
<svg
   width="24"
   height="24"
   viewBox="0 0 24 24"
   version="1.1"
   id="svg4"
   sodipodi:docname="ic_phone_android_24px.svg"
   inkscape:version="1.1 (c68e22c387, 2021-05-23)"
   xmlns:inkscape="http://www.inkscape.org/namespaces/inkscape"
   xmlns:sodipodi="http://sodipodi.sourceforge.net/DTD/sodipodi-0.dtd"
   xmlns="http://www.w3.org/2000/svg"
   xmlns:svg="http://www.w3.org/2000/svg">
  <defs
     id="defs8" />
  <sodipodi:namedview
     id="namedview6"
     pagecolor="#ffffff"
     bordercolor="#666666"
     borderopacity="1.0"
     inkscape:pageshadow="2"
     inkscape:pageopacity="0.0"
     inkscape:pagecheckerboard="0"
     showgrid="false"
     inkscape:zoom="33.833333"
     inkscape:cx="11.985222"
     inkscape:cy="11.955665"
     inkscape:window-width="1920"
     inkscape:window-height="1001"
     inkscape:window-x="-9"
     inkscape:window-y="-9"
     inkscape:window-maximized="1"
     inkscape:current-layer="svg4" />
  <path
     d="M16 1H8C6.34 1 5 2.34 5 4v16c0 1.66 1.34 3 3 3h8c1.66 0 3-1.34 3-3V4c0-1.66-1.34-3-3-3zm-2 20h-4v-1h4v1zm3.25-3H6.75V4h10.5v14z"
     id="path2" />
  <path
     style="fill:#a0a0a0;stroke:none;stroke-width:0.0295567"
     d="M 7.6506967,22.964352 C 7.0523521,22.884807 6.4876378,22.631084 6.0196654,22.231538 5.624802,21.894411 5.2610213,21.298225 5.1058926,20.73399 L 5.0246305,20.438424 V 12 3.5615764 L 5.1058926,3.2660099 C 5.442087,2.0432032 6.4137347,1.1979254 7.6699507,1.0354263 c 0.312047,-0.0403652 8.3321033,-0.04012 8.6608743,2.648e-4 0.365807,0.044934 0.655323,0.1313733 0.991118,0.2959127 0.761478,0.3731235 1.337908,1.0823691 1.572164,1.9344061 l 0.08126,0.2955665 V 12 20.438424 l -0.08126,0.295566 c -0.270684,0.984533 -0.986965,1.763934 -1.913811,2.082459 -0.496832,0.170744 -0.203191,0.160682 -4.862069,0.166615 -2.3571433,0.003 -4.3675317,-0.0054 -4.4675303,-0.01871 z M 14.024631,20.497537 V 19.980296 H 12 9.9753695 v 0.517241 0.517241 H 12 14.024631 Z m 3.251231,-9.502463 V 3.9901478 H 12 6.7241379 V 10.995074 18 H 12 17.275862 Z"
     id="path406" />
  <path
     style="fill:#a0a0a0;stroke:none;stroke-width:0.0295567"
     d="M 7.4334975,22.907625 C 6.8309512,22.778753 6.1904313,22.425336 5.8337497,22.02494 5.5288239,21.682642 5.2507079,21.171338 5.115796,20.705015 L 5.039005,20.439586 5.0393071,11.998958 5.0396093,3.5583294 5.1149487,3.293943 C 5.4444025,2.1377991 6.3008134,1.3317262 7.455999,1.0904946 c 0.2735168,-0.057117 0.4030643,-0.058791 4.540854,-0.058676 4.622206,1.288e-4 4.45223,-0.00542 4.942362,0.1613211 0.939952,0.3197671 1.658936,1.0962409 1.945907,2.1015024 l 0.07567,0.2650855 -0.0022,8.4393474 c -0.0012,4.641642 -0.0046,8.4726 -0.0075,8.51324 -0.0029,0.04064 -0.01354,0.08054 -0.02358,0.08867 -0.01004,0.0081 -0.0411,0.09458 -0.06904,0.192118 -0.223496,0.780412 -0.815163,1.494174 -1.539743,1.857477 -0.389909,0.1955 -0.629867,0.257841 -1.10435,0.286911 -0.23715,0.01453 -2.253349,0.02584 -4.480443,0.02514 -3.7994582,-0.0012 -4.0647596,-0.0046 -4.3004925,-0.05501 z M 14.024631,20.497537 V 19.980296 H 12 9.9753695 v 0.517241 0.517241 H 12 14.024631 Z m 3.251231,-9.502463 V 3.9901478 H 12 6.7241379 V 10.995074 18 H 12 17.275862 Z"
     id="path445" />
  <path
     style="fill:#ffffff;stroke:none;stroke-width:0.0295567"
     d="M 7.4334975,22.907955 C 6.9566654,22.806598 6.5023579,22.591377 6.115595,22.28362 5.6745539,21.932673 5.299768,21.340915 5.115796,20.705015 L 5.039005,20.439586 5.0393071,11.998958 5.0396093,3.5583294 5.1149487,3.293943 C 5.4444025,2.1377991 6.3008134,1.3317262 7.455999,1.0904946 c 0.2735168,-0.057117 0.4030643,-0.058791 4.540854,-0.058676 4.622206,1.288e-4 4.45223,-0.00542 4.942362,0.1613211 0.939952,0.3197671 1.658936,1.0962409 1.945907,2.1015024 l 0.07567,0.2650855 -0.0022,8.4393474 c -0.0012,4.641642 -0.0046,8.4726 -0.0075,8.51324 -0.0029,0.04064 -0.01354,0.08054 -0.02358,0.08867 -0.01004,0.0081 -0.0411,0.09458 -0.06904,0.192118 -0.223496,0.780412 -0.815163,1.494174 -1.539743,1.857477 -0.389909,0.1955 -0.629867,0.257841 -1.10435,0.286911 -0.23715,0.01453 -2.253349,0.02584 -4.480443,0.02514 -3.7896726,-0.0012 -4.0653668,-0.0047 -4.3004925,-0.05468 z M 14.024631,20.497537 V 19.980296 H 12 9.9753695 v 0.517241 0.517241 H 12 14.024631 Z m 3.251231,-9.502463 V 3.9901478 H 12 6.7241379 V 10.995074 18 H 12 17.275862 Z"
     id="path484" />
</svg>
