<?xml version="1.0" encoding="UTF-8" standalone="no"?>
<svg
   width="24"
   height="24"
   viewBox="0 0 24 24"
   version="1.1"
   id="svg4"
   sodipodi:docname="repairs.svg"
   inkscape:version="1.1 (c68e22c387, 2021-05-23)"
   xmlns:inkscape="http://www.inkscape.org/namespaces/inkscape"
   xmlns:sodipodi="http://sodipodi.sourceforge.net/DTD/sodipodi-0.dtd"
   xmlns="http://www.w3.org/2000/svg"
   xmlns:svg="http://www.w3.org/2000/svg">
  <defs
     id="defs8" />
  <sodipodi:namedview
     id="namedview6"
     pagecolor="#ffffff"
     bordercolor="#666666"
     borderopacity="1.0"
     inkscape:pageshadow="2"
     inkscape:pageopacity="0.0"
     inkscape:pagecheckerboard="0"
     showgrid="false"
     inkscape:zoom="33.833333"
     inkscape:cx="11.985222"
     inkscape:cy="11.955665"
     inkscape:window-width="1920"
     inkscape:window-height="1001"
     inkscape:window-x="-9"
     inkscape:window-y="-9"
     inkscape:window-maximized="1"
     inkscape:current-layer="svg4" />
  <path
     d="M15 9H9v6h6V9zm-2 4h-2v-2h2v2zm8-2V9h-2V7c0-1.1-.9-2-2-2h-2V3h-2v2h-2V3H9v2H7c-1.1 0-2 .9-2 2v2H3v2h2v2H3v2h2v2c0 1.1.9 2 2 2h2v2h2v-2h2v2h2v-2h2c1.1 0 2-.9 2-2v-2h2v-2h-2v-2h2zm-4 6H7V7h10v10z"
     id="path2" />
  <path
     style="fill:#f9f9f9;stroke-width:0.0295567"
     d="M 9,19.981826 V 18.97843 L 7.7955665,18.96953 6.591133,18.96063 6.3743468,18.88144 C 6.0575119,18.765668 5.8525346,18.633951 5.5986738,18.382959 5.415838,18.20219 5.3473475,18.107122 5.2366778,17.880496 5.0251167,17.447266 5.0098522,17.32511 5.0098522,16.065286 V 14.985222 H 4.0049261 3 V 13.995074 13.004926 H 4.0049261 5.0098522 V 12 10.995074 H 4.0049261 3 V 10.004926 9.0147783 H 4.0049261 5.0098522 V 7.9347145 c 0,-1.2598245 0.015264,-1.3819809 0.2268256,-1.8152105 C 5.4622126,5.6576599 5.8623546,5.30562 6.3743468,5.1185975 L 6.591133,5.0394089 7.7955665,5.0304893 9,5.0215696 V 4.018174 3.0147783 H 9.9901478 10.980296 V 4.0197044 5.0246305 H 12 13.019704 V 4.0197044 3.0147783 H 14.009852 15 V 4.018174 5.0215696 l 1.204433,0.00892 1.204434,0.00892 0.216786,0.079189 c 0.316835,0.1157347 0.521813,0.247452 0.775673,0.4984436 0.182836,0.1807693 0.251327,0.2758364 0.361996,0.5024629 0.211561,0.4332296 0.226826,0.555386 0.226826,1.8152105 V 9.0147783 H 19.995074 21 v 0.9901477 0.990148 H 19.995074 18.990148 V 12 13.004926 H 19.995074 21 v 0.990148 0.990148 h -1.004926 -1.004926 v 1.080064 c 0,1.259824 -0.01527,1.38198 -0.226826,1.81521 -0.225535,0.461844 -0.625677,0.813884 -1.137669,1.000907 l -0.216786,0.07919 -1.204434,0.0089 L 15,18.97843 v 1.003396 1.003396 H 14.009852 13.019704 V 19.980296 18.975369 H 12 10.980296 v 1.004927 1.004926 H 9.9901478 9 Z M 17.009852,12 V 6.9753695 H 12 6.9901478 V 12 17.024631 H 12 17.009852 Z"
     id="path102" />
  <path
     style="fill:#f9f9f9;stroke-width:0.0295567"
     d="M 9,12 V 9.0147783 h 3 3 V 12 14.985222 H 12 9 Z m 4.019704,0 V 10.995074 H 12 10.980296 V 12 13.004926 H 12 13.019704 Z"
     id="path141" />
</svg>
